<svg width="109" height="29" viewBox="0 0 109 29" fill="none" xmlns="http://www.w3.org/2000/svg">
<path d="M13.585 6.79249C13.585 10.5439 10.5439 13.585 6.79249 13.585C3.0411 13.585 0 10.5439 0 6.79249C0 3.0411 3.0411 0 6.79249 0C10.5439 0 13.585 3.0411 13.585 6.79249Z" fill="#9135E8"/>
<path d="M14.4832 6.7925C14.4832 3.04111 17.5243 0 21.2757 0C25.0271 0 28.0682 3.0411 28.0682 6.79249C28.0682 10.5439 25.0271 13.585 21.2757 13.585H14.4832V6.7925Z" fill="#9135E8"/>
<path d="M0 21.2757C0 17.5243 3.0411 14.4832 6.79249 14.4832H13.585V21.2757C13.585 25.0271 10.5439 28.0682 6.79249 28.0682C3.0411 28.0682 0 25.0271 0 21.2757Z" fill="#9135E8"/>
<path d="M28.0682 21.2757C28.0682 25.0271 25.0271 28.0682 21.2757 28.0682C17.5243 28.0682 14.4832 25.0271 14.4832 21.2757C14.4832 17.5243 17.5243 14.4832 21.2757 14.4832C25.0271 14.4832 28.0682 17.5243 28.0682 21.2757Z" fill="#9135E8"/>
<path d="M49.9729 7.50112H43.5939L45.2182 5.56255V23.6777H41.1707V5.56255L42.8473 7.50112H36.4291V4.35749H49.9729V7.50112ZM50.8744 23.6777V9.76716H54.9481V14.5612L54.1098 14.0373C54.2058 13.3823 54.3805 12.7798 54.6337 12.2297C54.8869 11.6795 55.2144 11.2036 55.6161 10.8019C56.0178 10.3915 56.4937 10.0728 57.0438 9.84575C57.6027 9.61871 58.2402 9.50519 58.9562 9.50519C59.5151 9.50519 59.9517 9.54885 60.266 9.63617C60.5891 9.71476 60.79 9.77589 60.8686 9.81955L60.2006 13.4609C60.122 13.4173 59.9473 13.3474 59.6766 13.2514C59.4059 13.1553 59.0566 13.1073 58.6287 13.1073C57.9302 13.1073 57.3451 13.2252 56.8735 13.4609C56.402 13.6967 56.0221 14.0111 55.734 14.404C55.4545 14.7882 55.2537 15.2161 55.1314 15.6877C55.0092 16.1592 54.9481 16.6351 54.9481 17.1154V23.6777H50.8744ZM64.2269 17.9406V15.2554H73.4482L73.0553 15.9365C73.0553 15.8667 73.0553 15.8012 73.0553 15.7401C73.0553 15.6702 73.0553 15.6047 73.0553 15.5436C73.0553 15.0458 72.9374 14.5699 72.7016 14.1158C72.4658 13.653 72.0991 13.2775 71.6013 12.9894C71.1123 12.6925 70.4836 12.544 69.7152 12.544C68.9467 12.544 68.2831 12.7099 67.7242 13.0418C67.1741 13.3649 66.7505 13.832 66.4536 14.4433C66.1655 15.0546 66.0214 15.7925 66.0214 16.657C66.0214 17.5476 66.1611 18.3117 66.4405 18.9492C66.7287 19.5779 67.1522 20.0626 67.7111 20.4031C68.2787 20.7437 68.9817 20.914 69.82 20.914C70.3614 20.914 70.8285 20.8659 71.2215 20.7699C71.6144 20.6651 71.9332 20.5341 72.1777 20.3769C72.4309 20.2197 72.623 20.0451 72.754 19.853C72.885 19.6609 72.9636 19.4731 72.9898 19.2897H76.9979C76.9455 19.8748 76.7447 20.4511 76.3954 21.0187C76.0461 21.5776 75.5614 22.0841 74.9415 22.5382C74.3215 22.9835 73.5661 23.3372 72.6754 23.5991C71.7935 23.8611 70.7849 23.9921 69.6497 23.9921C68.1128 23.9921 66.7724 23.6865 65.6284 23.0752C64.4845 22.4552 63.5982 21.6038 62.9695 20.521C62.3407 19.4295 62.0264 18.172 62.0264 16.7486C62.0264 15.3078 62.3451 14.046 62.9825 12.9632C63.6287 11.8716 64.5238 11.0246 65.6677 10.4221C66.8204 9.81082 68.1521 9.50519 69.6628 9.50519C71.2084 9.50519 72.5444 9.81518 73.6709 10.4352C74.7974 11.0464 75.6662 11.9066 76.2775 13.0156C76.8888 14.1158 77.1944 15.3995 77.1944 16.8665C77.1944 17.0848 77.19 17.2944 77.1813 17.4953C77.1726 17.6961 77.1595 17.8445 77.142 17.9406H64.2269ZM82.8468 20.4948H90.3915V23.6777H78.4981V20.6651L85.8594 12.7929L85.9511 12.937H78.7601V9.76716H90.2343V12.7798L82.9385 20.6258L82.8468 20.4948ZM99.3895 23.979C97.8876 23.979 96.5646 23.669 95.4207 23.049C94.2768 22.429 93.3817 21.5776 92.7355 20.4948C92.0981 19.4033 91.7793 18.1458 91.7793 16.7224C91.7793 15.3078 92.0981 14.0591 92.7355 12.9763C93.3817 11.8847 94.2768 11.0377 95.4207 10.4352C96.5646 9.82392 97.8876 9.51829 99.3895 9.51829C100.892 9.51829 102.214 9.82392 103.358 10.4352C104.502 11.0377 105.393 11.8847 106.03 12.9763C106.677 14.0591 107 15.3078 107 16.7224C107 18.1458 106.677 19.4033 106.03 20.4948C105.393 21.5776 104.502 22.429 103.358 23.049C102.214 23.669 100.892 23.979 99.3895 23.979ZM99.3895 20.7568C100.097 20.7568 100.712 20.5909 101.236 20.259C101.76 19.9272 102.166 19.46 102.455 18.8575C102.743 18.2462 102.887 17.5346 102.887 16.7224C102.887 15.9103 102.743 15.2074 102.455 14.6136C102.166 14.0111 101.76 13.5482 101.236 13.2252C100.712 12.9021 100.097 12.7405 99.3895 12.7405C98.691 12.7405 98.0753 12.9021 97.5427 13.2252C97.0187 13.5482 96.6127 14.0111 96.3245 14.6136C96.0363 15.2074 95.8923 15.9103 95.8923 16.7224C95.8923 17.5346 96.0363 18.2462 96.3245 18.8575C96.6127 19.46 97.0187 19.9272 97.5427 20.259C98.0753 20.5909 98.691 20.7568 99.3895 20.7568Z" fill="#23272E"/>
</svg>
