<svg width="40" height="40" viewBox="0 0 40 40" fill="none" xmlns="http://www.w3.org/2000/svg">
<path d="M37.4999 13.5322C37.4999 10.0822 34.7 7.28223 31.2499 7.28223H8.74994C5.29993 7.28223 2.49994 10.0822 2.49994 13.5322V14.1572H37.4999V13.5322Z" fill="white"/>
<path d="M8.74994 32.2822H24.625C23.1249 30.6322 22.3124 28.4447 22.3625 26.2072C22.3874 25.4197 22.5125 24.6322 22.7374 23.8822C23.1249 22.5947 23.7875 21.4572 24.7 20.4697C25.4885 19.4788 26.8256 18.974 28.075 19.1197C28.7499 18.2322 29.7875 17.6322 30.9874 17.6072C33.3624 17.5572 35.6999 18.4822 37.3999 20.1697C37.4375 20.2072 37.4749 20.2447 37.4999 20.2822V16.6572H2.49994V26.0322C2.49994 29.4822 5.29993 32.2822 8.74994 32.2822Z" fill="white"/>
<path d="M35.6463 21.9489C34.4213 20.7367 32.7545 20.0568 31.0406 20.1044C30.3503 20.1215 29.8046 20.694 29.8211 21.3837C29.837 22.0734 30.3997 22.5702 31.1004 22.6044C32.1514 22.5824 33.1323 22.9779 33.8781 23.7165C34.6185 24.4647 35.0164 25.4584 34.9999 26.5033C34.9914 26.8317 34.9377 27.1625 34.8376 27.5055C34.7982 27.6361 34.7283 27.7487 34.6768 27.8724L34.215 27.2895C33.7859 26.7475 33.0004 26.6571 32.459 27.0856C31.9183 27.5141 31.8267 28.3014 32.2558 28.8422L33.7817 30.7685C34.2539 31.3302 35.1165 31.3885 35.6512 30.8771C36.394 30.1325 36.9262 29.2414 37.2344 28.216C37.3992 27.652 37.4853 27.1125 37.4993 26.5534C37.5268 24.82 36.8719 23.1879 35.6463 21.9489Z" fill="white"/>
<path d="M27.6873 24.9559L28.1469 25.5367C28.3935 25.8492 28.7591 26.0116 29.1277 26.0116C29.3993 26.0116 29.6734 25.9237 29.9029 25.7418C30.4443 25.3133 30.5358 24.5272 30.1074 23.9864L28.5821 22.0589C28.1181 21.5103 27.2349 21.4508 26.7162 21.954C25.9704 22.6998 25.4382 23.5873 25.1342 24.5956C24.9731 25.1339 24.8809 25.7113 24.8675 26.2679C24.826 28.0074 25.4827 29.6444 26.7162 30.8773C27.8924 32.0541 29.4988 32.7181 31.1498 32.7181C31.2151 32.7181 31.2811 32.7169 31.347 32.7145C32.0367 32.6925 32.5781 32.1151 32.5561 31.4254C32.5335 30.7357 31.9787 30.14 31.2664 30.2169C30.2557 30.2438 29.2211 29.8458 28.4838 29.1097C27.738 28.3639 27.3412 27.3763 27.3663 26.3277C27.3748 25.992 27.431 25.6405 27.5286 25.3158C27.5671 25.1881 27.6366 25.0771 27.6873 24.9559Z" fill="white"/>
</svg>
