<svg width="22" height="22" viewBox="0 0 22 22" fill="none" xmlns="http://www.w3.org/2000/svg">
<path d="M3.36022 10.1856C2.98053 10.1866 2.6089 10.2952 2.28832 10.4986C1.96774 10.7021 1.71132 10.9922 1.54873 11.3353C1.38613 11.6784 1.32399 12.0605 1.36952 12.4375C1.41504 12.8145 1.56636 13.1708 1.80596 13.4654L6.91377 19.7224C7.09589 19.9485 7.32933 20.128 7.59472 20.2458C7.8601 20.3636 8.14976 20.4163 8.43964 20.3997C9.05961 20.3664 9.61934 20.0348 9.97621 19.4895L20.5864 2.40172C20.5882 2.39889 20.59 2.39606 20.5918 2.39326C20.6914 2.24041 20.6591 1.93748 20.4536 1.74718C20.3972 1.69492 20.3306 1.65477 20.2581 1.62921C20.1855 1.60364 20.1085 1.5932 20.0318 1.59852C19.955 1.60384 19.8802 1.62482 19.8119 1.66016C19.7435 1.6955 19.6832 1.74445 19.6345 1.804C19.6307 1.80868 19.6267 1.81329 19.6227 1.81784L8.92216 13.9079C8.88144 13.9539 8.83199 13.9913 8.77667 14.0181C8.72136 14.0448 8.66128 14.0603 8.59993 14.0636C8.53858 14.0669 8.47719 14.058 8.41931 14.0374C8.36144 14.0168 8.30823 13.9849 8.26279 13.9435L4.71148 10.7118C4.34265 10.3737 3.86057 10.186 3.36022 10.1856Z" fill="#3A4252"/>
</svg>
