<svg width="40" height="40" viewBox="0 0 40 40" fill="none" xmlns="http://www.w3.org/2000/svg">
<path fill-rule="evenodd" clip-rule="evenodd" d="M30.9198 5.94164L37.224 2.34953C37.4852 2.2007 37.808 2.3882 37.808 2.6889V36.2884C37.808 36.5035 37.6325 36.679 37.4174 36.679H31.1131C30.898 36.679 30.7225 36.5035 30.7225 36.2884V35.5772C32.2452 33.6065 33.1519 31.1355 33.1519 28.4525C33.1519 25.7695 32.2452 23.2985 30.7225 21.3278V6.28109C30.7226 6.13687 30.7945 6.01304 30.9198 5.94164ZM24.8296 2.05476C24.5359 1.98757 24.3522 1.69484 24.4195 1.40109C24.4867 1.10734 24.7794 0.923668 25.0731 0.990934L28.741 1.83468C29.0348 1.90195 29.2185 2.19461 29.1512 2.48836L28.3073 6.1564C28.24 6.45015 27.9474 6.63382 27.6536 6.56656C27.3599 6.49929 27.1762 6.20664 27.2435 5.91289L27.8168 3.42054L2.99635 16.828C2.73088 16.9707 2.39994 16.8712 2.25721 16.6058C2.11447 16.3403 2.21392 16.0094 2.47939 15.8666L27.0873 2.57414L24.8296 2.05476ZM21.4878 21.0317C17.3894 21.0317 14.067 24.3541 14.067 28.4525C14.067 32.551 17.3893 35.8733 21.4878 35.8733C25.5863 35.8733 28.9086 32.551 28.9086 28.4525C28.9086 24.354 25.5863 21.0317 21.4878 21.0317ZM22.0435 32.8072L22.058 33.4095C22.065 33.7103 21.8269 33.9599 21.526 33.967C21.2252 33.9741 20.9756 33.7359 20.9685 33.4352L20.9535 32.8172C20.276 32.7 19.8122 32.3514 19.3217 31.8887C19.1022 31.6822 19.0917 31.3369 19.2981 31.1175C19.5046 30.898 19.8499 30.8876 20.0693 31.094C20.5243 31.5233 20.8377 31.7666 21.4878 31.7666C22.2664 31.7666 23.0829 31.2414 23.0829 30.4006C23.0829 29.5598 22.2664 29.0346 21.4878 29.0346C20.1092 29.0346 18.7988 28.0226 18.7988 26.5748C18.7988 25.343 19.767 24.393 20.9337 24.1678L20.9176 23.4955C20.9106 23.1947 21.1487 22.9451 21.4495 22.938C21.7503 22.9309 21.9999 23.1691 22.007 23.4699L22.0241 24.1837C22.6542 24.3237 23.4834 24.6994 23.8431 25.2468C24.0083 25.498 23.9385 25.8357 23.6872 26.0009C23.4359 26.166 23.0983 26.0962 22.9331 25.8449C22.7216 25.5231 21.8653 25.2067 21.4878 25.2067C20.7138 25.2067 19.8904 25.7329 19.8904 26.5748C19.8904 27.4157 20.7091 27.9408 21.4878 27.9408C22.8692 27.9408 24.1767 28.9552 24.1767 30.4005C24.1768 31.6306 23.2083 32.5816 22.0435 32.8072ZM21.4878 17.8821C15.65 17.8821 10.9174 22.6146 10.9174 28.4524C10.9174 34.2902 15.6499 39.0227 21.4878 39.0227C27.3257 39.0227 32.0582 34.2902 32.0582 28.4524C32.0582 22.6146 27.3257 17.8821 21.4878 17.8821ZM21.4878 36.9669C16.7855 36.9669 12.9733 33.1548 12.9733 28.4524C12.9733 23.7502 16.7856 19.9379 21.4878 19.9379C26.1901 19.9379 30.0024 23.7502 30.0024 28.4524C30.0024 33.1547 26.1902 36.9669 21.4878 36.9669ZM5.36494 18.7295C5.23963 18.8009 5.16767 18.9247 5.16775 19.069V36.2883C5.16767 36.5034 5.34314 36.679 5.55838 36.679H11.8626C12.0778 36.679 12.2532 36.5035 12.2532 36.2884V35.5772C10.7305 33.6065 9.82385 31.1354 9.82385 28.4524C9.82385 25.7694 10.7305 23.2984 12.2532 21.3277V15.4768C12.2533 15.1761 11.9306 14.9884 11.6692 15.1373C9.56775 16.3347 7.46635 17.5321 5.36494 18.7295ZM18.1424 12.3355C18.017 12.4069 17.9451 12.5308 17.9451 12.675V17.337C19.0624 16.981 20.2526 16.7884 21.4878 16.7884C22.7231 16.7884 23.9133 16.981 25.0306 17.337V9.08289C25.0306 8.78211 24.7079 8.59453 24.4466 8.74343C22.3452 9.9407 20.2438 11.1381 18.1424 12.3355Z" fill="white"/>
</svg>
