<svg width="40" height="40" viewBox="0 0 40 40" fill="none" xmlns="http://www.w3.org/2000/svg">
<path d="M25 18.7501C22.9321 18.7501 21.25 17.068 21.25 15.0001L21.2509 14.9961L20.1092 15.1991C20.0372 15.2113 19.9627 15.2113 19.8907 15.1991L18.7491 14.9961L18.75 15.0001C18.75 17.068 17.0679 18.7501 15 18.7501C13.4521 18.7501 12.121 17.8071 11.5491 16.4657L11.2927 17.4232L13.2526 21.0805L19.7607 18.3815C19.837 18.3497 19.9189 18.3338 20 18.3338C20.0811 18.3338 20.163 18.3497 20.2392 18.3815L26.7474 21.0805L28.7072 17.4232L28.4509 16.4658C27.879 17.8071 26.5479 18.7501 25 18.7501Z" fill="white"/>
<path d="M36.25 16.25H34.5166C34.1669 14.8853 33.6323 13.5912 32.9194 12.384L34.1425 11.1609C34.6301 10.6726 34.6301 9.88162 34.1419 9.39325L30.6067 5.85813C30.1185 5.36988 29.3275 5.36988 28.8391 5.85813L27.616 7.08125C26.4088 6.36725 25.1147 5.8325 23.75 5.48338V3.75C23.75 3.05913 23.1903 2.5 22.5 2.5H17.5C16.8097 2.5 16.25 3.05913 16.25 3.75V5.48338C14.8853 5.8325 13.5912 6.36713 12.384 7.08125L11.1609 5.85813C10.6726 5.36988 9.88162 5.36988 9.39325 5.85813L5.85813 9.39325C5.36988 9.88162 5.36987 10.6726 5.8575 11.1609L7.08063 12.384C6.36775 13.5912 5.83313 14.8853 5.48338 16.25H3.75C3.05975 16.25 2.5 16.8091 2.5 17.5V22.5C2.5 23.1909 3.05975 23.75 3.75 23.75H5.48338C5.83313 25.1147 6.36775 26.4088 7.08063 27.616L5.8575 28.8391C5.36987 29.3274 5.36988 30.1184 5.85813 30.6067L9.39325 34.1419C9.8815 34.6301 10.6725 34.6301 11.1609 34.1419L12.384 32.9187C13.5912 33.6329 14.8853 34.1675 16.25 34.5166V36.25C16.25 36.9409 16.8097 37.5 17.5 37.5H22.5C23.1903 37.5 23.75 36.9409 23.75 36.25V34.5166C25.1147 34.1675 26.4088 33.6329 27.616 32.9187L28.8391 34.1419C29.3274 34.6301 30.1184 34.6301 30.6067 34.1419L34.1419 30.6067C34.6301 30.1185 34.6301 29.3275 34.1425 28.8391L32.9194 27.616C33.6323 26.4088 34.1669 25.1147 34.5166 23.75H36.25C36.9403 23.75 37.5 23.1909 37.5 22.5V17.5C37.5 16.8091 36.9403 16.25 36.25 16.25ZM20.0373 31.25C19.347 31.25 18.7811 30.6909 18.7811 30C18.7811 29.3091 19.3348 28.75 20.025 28.75H20.0373C20.7281 28.75 21.2873 29.3091 21.2873 30C21.2873 30.6909 20.7281 31.25 20.0373 31.25ZM22.4359 22.8955L21.1859 26.6455C21.0156 27.1558 20.5384 27.5 20 27.5C19.4616 27.5 18.9844 27.1558 18.8141 26.6455L17.5641 22.8955C17.4371 22.5146 17.5013 22.0948 17.7362 21.7688C17.9713 21.4428 18.3484 21.25 18.75 21.25H21.25C21.6516 21.25 22.0288 21.4429 22.2638 21.7688C22.4988 22.0946 22.5629 22.5146 22.4359 22.8955ZM29.9261 17.7954L27.5824 22.1704C27.4701 22.3791 27.2553 22.5 27.0312 22.5C26.9513 22.5 26.8701 22.4841 26.792 22.4524L20 19.635L13.208 22.4524C12.912 22.5745 12.5701 22.4536 12.4176 22.1704L10.0739 17.7954C9.99875 17.655 9.9805 17.4914 10.0214 17.3389L11.1933 12.9639C11.2775 12.6489 11.59 12.4536 11.9061 12.5098L20 13.949L28.0939 12.5098C28.407 12.4549 28.7225 12.6489 28.8068 12.9639L29.9786 17.3389C30.0195 17.4915 30.0013 17.655 29.9261 17.7954Z" fill="white"/>
<path d="M15.625 17.5C16.6605 17.5 17.5 16.6605 17.5 15.625C17.5 14.5895 16.6605 13.75 15.625 13.75C14.5895 13.75 13.75 14.5895 13.75 15.625C13.75 16.6605 14.5895 17.5 15.625 17.5Z" fill="white"/>
<path d="M24.375 17.5C25.4105 17.5 26.25 16.6605 26.25 15.625C26.25 14.5895 25.4105 13.75 24.375 13.75C23.3395 13.75 22.5 14.5895 22.5 15.625C22.5 16.6605 23.3395 17.5 24.375 17.5Z" fill="white"/>
</svg>
