<svg width="40" height="40" viewBox="0 0 40 40" fill="none" xmlns="http://www.w3.org/2000/svg">
<path fill-rule="evenodd" clip-rule="evenodd" d="M28.3265 24.4424L26.0703 30.4878C25.7597 31.3202 25.2743 32.0857 24.6788 31.455C24.5016 31.2673 24.351 31.0156 24.3791 30.739L24.8766 25.8329C24.8796 25.804 24.8966 25.7807 24.9233 25.7692L28.2226 24.3436C28.2519 24.331 28.2841 24.3366 28.3073 24.3586C28.3304 24.3806 28.3377 24.4125 28.3265 24.4424ZM24.0481 36.8512V38.5318C24.0481 38.6143 24.1174 38.6837 24.2 38.6837H26.074C26.1565 38.6837 26.2259 38.6142 26.2259 38.5318V36.8512C26.2259 36.8082 26.1909 36.7733 26.148 36.7733H24.1261C24.083 36.7733 24.0481 36.8083 24.0481 36.8512ZM13.7733 36.8512V38.5318C13.7733 38.6143 13.8428 38.6837 13.9253 38.6837H15.7993C15.8818 38.6837 15.9512 38.6142 15.9512 38.5318V36.8512C15.9512 36.8082 15.9161 36.7733 15.8733 36.7733H13.8513C13.8083 36.7733 13.7733 36.8083 13.7733 36.8512ZM39.0688 11.8C38.0191 9.27073 32.2335 10.1287 29.3617 10.7141C29.3293 10.7207 29.3055 10.7457 29.3004 10.7784C29.2953 10.8112 29.3103 10.8422 29.3393 10.8584C29.6534 11.0348 29.9313 11.2691 30.1585 11.5476C30.1771 11.5703 30.2045 11.5803 30.2333 11.575C32.0792 11.2298 33.7002 11.0669 35.0082 11.0988C38.6307 11.1872 39.1704 12.5833 36.6681 15.2011C35.9838 15.917 35.0974 16.6798 34.0392 17.4665C34.0161 17.4836 34.0049 17.5098 34.0083 17.5383C34.0117 17.5669 34.0289 17.5896 34.0553 17.6008L34.9645 17.985C34.991 17.9962 35.0194 17.9926 35.0423 17.975C35.9739 17.2585 36.7672 16.5606 37.4006 15.8979C38.8929 14.337 39.5301 12.9116 39.0688 11.8ZM33.1521 18.1002C32.7941 17.993 32.432 17.9445 32.07 17.9549C31.2269 17.979 30.6847 18.286 29.9764 18.6426C29.9515 18.6552 29.9241 18.654 29.9005 18.6394C29.8768 18.6248 29.8634 18.6008 29.8634 18.573V14.0436C29.8634 12.4772 28.5837 11.1975 27.0173 11.1975H12.9819C11.4156 11.1975 10.1359 12.4772 10.1359 14.0436V27.719C10.1359 27.7567 10.1098 27.7884 10.0729 27.7956C8.84743 28.0342 7.71455 28.1952 6.69887 28.2747C4.02951 28.4838 2.24711 28.1613 1.86487 27.2403C1.54775 26.4763 2.22711 25.2975 3.65703 23.8976C4.96199 22.6199 6.86791 21.2118 9.21415 19.7948C9.23822 19.7803 9.25183 19.7562 9.25183 19.7281V18.733C9.25183 18.7042 9.2375 18.6795 9.21255 18.6653C9.18758 18.651 9.15903 18.6513 9.13422 18.6659C6.51711 20.2126 4.38895 21.7666 2.94831 23.177C1.21007 24.879 0.436145 26.4373 0.930465 27.6284C1.50223 29.0061 3.64919 29.5291 6.77407 29.2844C9.17527 29.0963 12.5188 28.2486 15.6402 27.279C15.7033 27.2594 15.7677 27.2435 15.8293 27.22C16.8264 26.8382 14.7515 24.198 14.2314 23.3561C14.2177 23.3338 14.2158 23.3087 14.2261 23.2847C14.2363 23.2607 14.2557 23.2446 14.2812 23.239C14.3073 23.2334 14.3351 23.2358 14.3679 23.2529L17.4241 24.8514C18.1033 25.2066 18.8025 25.4335 19.4858 25.0879L31.0552 19.236C31.7339 18.8927 32.4458 18.8726 33.1548 19.1754L34.9858 19.9575C35.1467 20.0262 35.1457 20.2514 34.9865 20.3178C26.9569 23.7873 18.8495 28.0577 10.1992 29.708C10.1621 29.715 10.1358 29.7467 10.1358 29.7845V33.1787C10.1358 34.745 11.4155 36.0248 12.9818 36.0248H27.0172C28.5835 36.0248 29.8633 34.7451 29.8633 33.1787V23.6859C29.8633 23.6542 29.8811 23.627 29.9103 23.6144L35.3864 21.2483C36.3585 20.8294 36.3564 19.4435 35.3817 19.0272L34.2691 18.552C34.2686 18.5518 34.2682 18.5516 34.2677 18.5514L33.1589 18.1028C33.1566 18.1018 33.1545 18.101 33.1521 18.1002ZM23.2573 10.241V5.12761C23.2573 5.10609 23.265 5.08761 23.2803 5.07241C23.2955 5.05721 23.3141 5.04961 23.3356 5.04969C23.6978 5.05089 23.9996 5.04993 24.3074 4.74209C24.497 4.55249 24.6148 4.29041 24.6148 4.00169V2.36425C24.6148 1.78689 24.1443 1.31641 23.567 1.31641H16.4324C15.855 1.31641 15.3845 1.78689 15.3845 2.36425V4.00169C15.3845 4.57897 15.855 5.04945 16.4324 5.04945H16.6641C16.707 5.04945 16.742 5.08449 16.742 5.12737V10.241C16.742 10.2839 16.777 10.3189 16.8199 10.3189H17.6776C17.7205 10.3189 17.7555 10.2838 17.7555 10.241V5.12737C17.7555 5.08441 17.7905 5.04945 17.8334 5.04945H22.1657C22.2086 5.04945 22.2436 5.08449 22.2436 5.12737V10.241C22.2436 10.2839 22.2786 10.3189 22.3215 10.3189H23.1792C23.2223 10.319 23.2573 10.284 23.2573 10.241ZM17.8193 19.842C17.8182 19.8412 17.8172 19.8405 17.816 19.8398C17.0952 19.3817 17.403 18.8483 18.2521 19.0861C18.2531 19.0864 18.254 19.0866 18.255 19.0868L25.3509 20.7877C25.3833 20.7954 25.4064 20.8215 25.4101 20.8547C25.4139 20.8879 25.3973 20.9185 25.3673 20.9333L21.872 22.6704C21.8456 22.6835 21.8162 22.6812 21.7921 22.6642L17.8193 19.842Z" fill="white"/>
</svg>
